PathFileType	4	(X/Y/Z)	Patient4_TMGait_0pt7_01_left_17.trc.trc
DataRate	CameraRate	NumFrames	NumMarkers	Units	OrigDataRate	OrigDataStartFrame	OrigNumFrames
85.889570552147	85.889570552147	5	33	mm	85.889570552147	124	       141
Frame#	Time	Sacral			L.Shoulder			Chest			R.Shoulder			Neck			R.ASIS			L.ASIS			R.Thigh.Superior			R.Thigh.Lateral			R.Thigh.Inferior			R.Patella			L.Thigh.Superior			L.Thigh.Lateral			L.Thigh.Inferior			L.Patella			L.Shank.Superior			L.Shank.Lateral			L.Shank.Inferior			R.Shank.Superior			R.Shank.Lateral			R.Shank.Inferior			R.Heel			R.Midfoot.Superior			R.Midfoot.Lateral			R.Toe			L.Heel			L.Midfoot.Lateral			L.Midfoot.Superior			L.Toe			L.Elbow			L.Wrist			R.Elbow			R.Wrist			
		X1	Y1	Z1	X2	Y2	Z2	X3	Y3	Z3	X4	Y4	Z4	X5	Y5	Z5	X6	Y6	Z6	X7	Y7	Z7	X8	Y8	Z8	X9	Y9	Z9	X10	Y10	Z10	X11	Y11	Z11	X12	Y12	Z12	X13	Y13	Z13	X14	Y14	Z14	X15	Y15	Z15	X16	Y16	Z16	X17	Y17	Z17	X18	Y18	Z18	X19	Y19	Z19	X20	Y20	Z20	X21	Y21	Z21	X22	Y22	Z22	X23	Y23	Z23	X24	Y24	Z24	X25	Y25	Z25	X26	Y26	Z26	X27	Y27	Z27	X28	Y28	Z28	X29	Y29	Z29	X30	Y30	Z30	X31	Y31	Z31	X32	Y32	Z32	X33	Y33	Z33	

124	20.912071428571	821.076563425578	1000.025686258675	510.948524497376	990.583765214378	1419.716090205551	314.070316907668	1109.070177599793	1343.992200630962	461.385527551169	1051.319265694997	1424.704674856686	641.271880505033	1012.637543514521	1479.378997698712	469.064805451809	1048.319740357601	928.428860885469	618.480774183069	1024.978035827789	941.944932364174	342.763298142862	1038.233646587073	715.104020020433	591.756847711164	929.045580512741	625.110021287290	651.602324686092	986.331288636686	557.875238698885	570.998145536843	963.282810792474	472.749583737213	573.562605618634	1101.577324875104	768.122232746028	377.325795349792	1056.792596055769	636.858376531225	299.687755066824	1161.565982596577	581.722273453249	360.971592681300	1185.914537397228	514.110108894491	360.626073245871	1169.014337080591	439.541017449498	348.311641770712	1099.778497736955	311.818256050324	296.891336502097	1183.286215578477	210.307183625642	351.807823309476	921.089752770587	390.394426935478	579.580940099430	834.256176947035	298.733163651987	640.817729377361	858.991614323357	199.783222255057	574.867349176225	705.254182126446	44.489129702632	540.695286538352	877.008767707774	96.102490984442	580.307099221037	786.731445410220	37.198494239284	617.043823429128	995.511300148419	40.084024743043	611.073473261939	1092.761429772069	40.275152676068	389.699026821732	1167.162208579260	39.947377185510	309.818790887938	1243.938874220057	108.719292438692	332.742952011230	1374.954213284853	67.643634824540	307.095115317526	806.661080378521	1123.101711216685	227.199962197678	732.504836894253	874.180129749576	251.808356681025	1235.836887329626	1151.615607377836	744.956145391294	1406.303940756829	1281.661039535997	615.401217677906	
125	20.923714285714	822.691724562667	998.405708689699	508.481910692408	990.460647280856	1419.013703463754	312.354706184477	1109.057928776212	1343.757965716848	459.824824711722	1050.492430780413	1423.964297643829	639.686548292401	1012.035568203538	1478.612784354870	467.385622560397	1049.823422919825	927.228806838211	616.354047942385	1026.860281724316	941.125949077372	340.792813452719	1039.923445557067	713.722656315199	589.821712992533	930.314058431104	623.847571023002	649.495185877963	987.604529117566	556.143702832304	569.209063581502	963.761110304025	470.236000995573	571.596187435861	1103.793855416324	765.979961881493	375.650277205700	1056.985083565676	634.863003772457	299.787188602127	1161.584591116514	579.311686331540	361.196504716983	1184.432046867146	510.799792525591	361.621748571884	1166.726512210206	436.147756665066	349.210636393457	1095.565709894520	309.428648515055	298.028138044156	1176.722722244551	206.710976437012	353.715407123284	919.862476809137	388.609644840757	577.900299630752	831.356838794235	298.861702360768	639.812230097482	853.599816142268	199.247759706573	574.141168129178	697.207005889143	45.885560460580	540.934207243782	869.299450143975	96.202025929944	580.256393751864	778.738208481696	37.711450948085	617.123294436369	987.490906231128	39.647244359417	611.148469052334	1082.519882554720	39.248350310567	392.073613665988	1156.311484946078	38.160838872142	311.483605069010	1234.845854587149	104.686714339732	334.876366463565	1365.040335712821	60.756526486808	307.591499608578	805.907385466425	1123.189952280788	225.794065924868	730.168820370392	874.700946698705	250.111944019742	1237.184721789696	1152.472401657187	742.747194189045	1400.340045776476	1289.454225789827	611.718222011909	
126	20.935357142857	824.281071166643	997.063687973861	506.027796829146	990.396243138199	1418.534532804380	310.570851921662	1109.119227773887	1343.755595795669	458.202576643373	1049.806534851523	1423.504095830107	638.059327084543	1011.588059603875	1478.130351717161	465.595659772721	1051.359240303236	926.269041099509	614.078791202265	1028.612697311425	940.714152424274	338.741393896504	1041.796812017235	712.636579727530	587.797611737272	931.884288532727	622.791518992888	647.305715423710	989.351934243445	554.619882989942	567.449428038727	964.834190773381	467.770711329162	569.813562958387	1105.948946993403	764.296517895060	373.960037604750	1057.507260059362	633.550675173076	299.415563350974	1161.643330681580	577.450155011408	361.348147296324	1183.144034864455	508.104810040143	362.338060434721	1164.668284805570	433.371566779668	349.832489189874	1091.865659147626	307.705363259360	298.433240067184	1170.349255998269	203.754162046254	355.163582906477	919.028232240256	387.026855629840	576.363941711300	828.692638099770	299.350942450978	638.854504939548	848.451622248434	199.048318651236	573.572421532659	689.247796545957	47.906768212198	541.268099385138	861.814042061244	96.419403408238	580.329781782389	770.820330433604	38.490374736984	617.251267116857	979.516919711810	39.188285824624	611.217506342645	1072.419194406017	38.542138562634	393.599646963154	1145.828879911976	36.909445708492	312.536914701625	1225.812504965304	101.488382669463	336.560746507216	1355.347785301729	55.128685897215	308.039369124575	806.015754323912	1122.824562211992	224.236594320372	729.167620073695	874.605551159462	247.998705092367	1237.819079393075	1152.779452257154	740.872146462651	1394.140402920099	1295.844361169628	608.597846730234	
127	20.947000000000	825.802895910147	996.089103493273	503.605146406015	990.389923981345	1418.345374928726	308.759231742696	1109.260881359189	1344.014834836638	456.531313228773	1049.320688504247	1423.366537100144	636.410323675927	1011.323298266392	1477.980761424790	463.743029279477	1052.881366582421	925.611449990461	611.637891977992	1030.179245384039	940.765140887012	336.566228454572	1043.764295461787	711.913954742117	585.666990274074	933.717559033875	622.008882709403	645.071241095484	991.536598768491	553.382182621878	565.748005733215	966.515981592347	465.425858496486	568.330584683314	1107.930876688705	763.189626231146	372.227218048600	1058.312992502356	632.965789881070	298.526577663154	1161.698335748151	576.188761946841	361.276491402930	1182.019893510017	506.086869362889	362.626624410006	1162.824627032367	431.261266509417	350.096931370077	1088.665194958507	306.650662124301	298.143490595824	1164.271254073682	201.505256546477	356.128745551020	918.587353008521	385.709917623965	575.066830024371	826.269599195778	300.275938668522	637.997912253602	843.589176513283	199.259941815281	573.223832707897	681.425115588549	50.667418857572	541.711097795358	854.608882697368	96.775716816807	580.573203779795	762.997415846133	39.593927280435	617.443500634336	971.582203465922	38.731193161313	611.271819837866	1062.730150608515	38.133525264093	394.383208499284	1135.955092761257	36.153175841600	313.061685507588	1217.033326200609	99.184632953336	337.763933053628	1346.082895813365	50.913785109398	308.401397126744	807.000263597296	1122.069356562004	222.506913698196	729.564323769989	873.928245817464	245.473789301019	1237.705990420510	1152.509513907341	739.342737607097	1387.833498823079	1300.819882396864	606.034332468053	
128	20.958642857143	827.234720557652	995.540479635375	501.211753769344	990.433514652914	1418.498477046675	306.957699464160	1109.482224981452	1344.553386318070	454.821577382385	1049.072158874748	1423.570941435882	634.757047433739	1011.248446342710	1478.190469431940	461.880568227384	1054.353019803945	925.301462657008	609.015811406094	1031.533406451435	941.299694027518	334.218054852049	1045.764296586220	711.601412956843	583.424608110490	935.800301571495	621.542470019832	642.832389842456	994.153445610081	552.487562572919	564.138795289184	968.843375304550	463.261593944980	567.260071977422	1109.657032050561	762.714218669344	370.395157066577	1059.285250725098	633.056079378911	297.142431547559	1161.676787916916	575.486607024378	360.849167582818	1180.975770996859	504.706472170213	362.403744281772	1161.106788954563	429.773044810961	349.975168667010	1085.822982840037	306.186764806348	297.286487593800	1158.483448612372	199.936277657728	356.646449262165	918.578674257430	384.699867544820	574.097820015431	824.129151883849	301.694817917316	637.291337280537	839.077413526603	199.940065928847	573.153050429279	673.807970498094	54.272887198941	542.275367384975	847.744253176565	97.286835382131	581.026816263358	755.299439220805	41.084016053803	617.712596083817	963.677008657702	38.298310736382	611.304001108741	1053.567686619391	37.972550347485	394.583799153010	1126.759682358715	35.807452907109	313.175845401358	1208.585894835530	97.719670819511	338.513469678238	1337.312797034562	48.061934750336	308.654180130620	808.845797321127	1121.010623889183	220.584913718522	731.428915175710	872.725992483355	242.555830623075	1236.794865572560	1151.658358687562	738.160645952124	1381.530626170469	1304.372308883550	604.014078564368	
